<svg width="376" height="76" viewBox="0 0 376 76" fill="none" xmlns="http://www.w3.org/2000/svg">
<g filter="url(#filter0_ddd_2317_10436)">
<path d="M16 25.8C16 21.3196 16 19.0794 16.8719 17.3681C17.6389 15.8628 18.8628 14.6389 20.3681 13.8719C22.0794 13 24.3196 13 28.8 13H347.2C351.68 13 353.921 13 355.632 13.8719C357.137 14.6389 358.361 15.8628 359.128 17.3681C360 19.0794 360 21.3196 360 25.8V44.2C360 48.6804 360 50.9206 359.128 52.6319C358.361 54.1372 357.137 55.3611 355.632 56.1281C353.921 57 351.68 57 347.2 57H28.8C24.3196 57 22.0794 57 20.3681 56.1281C18.8628 55.3611 17.6389 54.1372 16.8719 52.6319C16 50.9206 16 48.6804 16 44.2V25.8Z" fill="#1C1C1E"/>
<g clip-path="url(#clip0_2317_10436)">
<path d="M50.8011 32.3636C50.7415 31.8598 50.4995 31.4688 50.0753 31.1903C49.651 30.9119 49.1307 30.7727 48.5142 30.7727C48.0634 30.7727 47.669 30.8456 47.331 30.9915C46.9962 31.1373 46.7344 31.3378 46.5455 31.593C46.3598 31.8482 46.267 32.1383 46.267 32.4631C46.267 32.7348 46.3317 32.9685 46.4609 33.1641C46.5935 33.3563 46.7625 33.517 46.968 33.6463C47.1735 33.7723 47.389 33.8767 47.6143 33.9595C47.8397 34.0391 48.0469 34.1037 48.2358 34.1534L49.2699 34.4318C49.535 34.5014 49.83 34.5975 50.1548 34.7202C50.483 34.8428 50.7962 35.0102 51.0945 35.2223C51.3961 35.4311 51.6446 35.6996 51.8402 36.0277C52.0357 36.3558 52.1335 36.7585 52.1335 37.2358C52.1335 37.786 51.9893 38.2831 51.701 38.7273C51.416 39.1714 50.9983 39.5244 50.4482 39.7862C49.9013 40.0481 49.2367 40.179 48.4545 40.179C47.7254 40.179 47.094 40.0613 46.5604 39.826C46.0301 39.5907 45.6125 39.2625 45.3075 38.8416C45.0059 38.4207 44.8352 37.9318 44.7955 37.375H46.0682C46.1013 37.7595 46.2306 38.0777 46.456 38.3295C46.6847 38.5781 46.973 38.7637 47.321 38.8864C47.6723 39.0057 48.0502 39.0653 48.4545 39.0653C48.9252 39.0653 49.3478 38.9891 49.7223 38.8366C50.0968 38.6809 50.3935 38.4654 50.6122 38.1903C50.831 37.9119 50.9403 37.5871 50.9403 37.2159C50.9403 36.8778 50.8459 36.6027 50.657 36.3906C50.468 36.1785 50.2195 36.0062 49.9112 35.8736C49.603 35.741 49.2699 35.625 48.9119 35.5256L47.6591 35.1676C46.8636 34.9389 46.2339 34.6125 45.7699 34.1882C45.3059 33.764 45.0739 33.2088 45.0739 32.5227C45.0739 31.9527 45.228 31.4555 45.5362 31.0312C45.8478 30.6037 46.2654 30.2723 46.7891 30.0369C47.3161 29.7983 47.9044 29.679 48.554 29.679C49.2102 29.679 49.7936 29.7966 50.304 30.032C50.8144 30.264 51.2188 30.5821 51.517 30.9865C51.8187 31.3909 51.9777 31.8499 51.9943 32.3636H50.8011ZM54.7573 42.8636C54.5584 42.8636 54.3811 42.8471 54.2253 42.8139C54.0695 42.7841 53.9618 42.7543 53.9022 42.7244L54.2005 41.6903C54.4855 41.7633 54.7374 41.7898 54.9561 41.7699C55.1749 41.75 55.3688 41.6522 55.5378 41.4766C55.7102 41.3042 55.8676 41.0241 56.0101 40.6364L56.2289 40.0398L53.405 32.3636H54.6777L56.7857 38.4489H56.8652L58.9732 32.3636H60.2459L57.0044 41.1136C56.8586 41.508 56.678 41.8345 56.4625 42.093C56.2471 42.3549 55.9969 42.5488 55.7118 42.6747C55.4301 42.8007 55.1119 42.8636 54.7573 42.8636ZM67.2037 34.0739L66.1497 34.3722C66.0834 34.1965 65.9856 34.0258 65.8564 33.8601C65.7304 33.6911 65.5581 33.5518 65.3393 33.4425C65.1206 33.3331 64.8405 33.2784 64.4991 33.2784C64.0318 33.2784 63.6423 33.3861 63.3308 33.6016C63.0225 33.8137 62.8684 34.0838 62.8684 34.4119C62.8684 34.7036 62.9745 34.9339 63.1866 35.103C63.3987 35.272 63.7302 35.4129 64.1809 35.5256L65.3145 35.804C65.9972 35.9697 66.506 36.2232 66.8407 36.5646C67.1755 36.9027 67.3429 37.3385 67.3429 37.8722C67.3429 38.3097 67.2169 38.7008 66.965 39.0455C66.7164 39.3902 66.3684 39.6619 65.921 39.8608C65.4735 40.0597 64.9532 40.1591 64.3599 40.1591C63.581 40.1591 62.9364 39.9901 62.426 39.652C61.9155 39.3139 61.5924 38.8201 61.4565 38.1705L62.5701 37.892C62.6762 38.303 62.8767 38.6113 63.1717 38.8168C63.47 39.0223 63.8594 39.125 64.34 39.125C64.8869 39.125 65.3211 39.009 65.6426 38.777C65.9674 38.5417 66.1298 38.2599 66.1298 37.9318C66.1298 37.6667 66.037 37.4446 65.8514 37.2656C65.6658 37.0833 65.3807 36.9474 64.9963 36.858L63.7235 36.5597C63.0242 36.3939 62.5105 36.1371 62.1824 35.7891C61.8575 35.4377 61.6951 34.9986 61.6951 34.4716C61.6951 34.0407 61.8161 33.6596 62.0581 33.3281C62.3033 32.9967 62.6364 32.7365 63.0574 32.5476C63.4816 32.3587 63.9622 32.2642 64.4991 32.2642C65.2548 32.2642 65.8481 32.4299 66.2789 32.7614C66.7131 33.0928 67.0214 33.5303 67.2037 34.0739ZM72.43 32.3636V33.358H68.4727V32.3636H72.43ZM69.6261 30.5341H70.7994V37.8125C70.7994 38.1439 70.8474 38.3925 70.9435 38.5582C71.043 38.7206 71.1689 38.83 71.3214 38.8864C71.4772 38.9394 71.6412 38.9659 71.8136 38.9659C71.9428 38.9659 72.0489 38.9593 72.1317 38.946C72.2146 38.9295 72.2809 38.9162 72.3306 38.9062L72.5692 39.9602C72.4897 39.9901 72.3787 40.0199 72.2362 40.0497C72.0936 40.0829 71.913 40.0994 71.6942 40.0994C71.3628 40.0994 71.038 40.0282 70.7198 39.8857C70.4049 39.7431 70.1431 39.526 69.9343 39.2344C69.7288 38.9427 69.6261 38.5748 69.6261 38.1307V30.5341ZM77.3146 40.1591C76.5788 40.1591 75.9441 39.9967 75.4105 39.6719C74.8802 39.3438 74.4709 38.8864 74.1825 38.2997C73.8975 37.7098 73.755 37.0237 73.755 36.2415C73.755 35.4593 73.8975 34.7699 74.1825 34.1733C74.4709 33.5734 74.8719 33.1061 75.3857 32.7713C75.9027 32.4332 76.5059 32.2642 77.1953 32.2642C77.593 32.2642 77.9858 32.3305 78.3736 32.4631C78.7614 32.5956 79.1143 32.8111 79.4325 33.1094C79.7507 33.4044 80.0043 33.7955 80.1932 34.2827C80.3821 34.7699 80.4766 35.3698 80.4766 36.0824V36.5795H74.5902V35.5653H79.2834C79.2834 35.1345 79.1972 34.75 79.0249 34.4119C78.8558 34.0739 78.6139 33.8071 78.299 33.6115C77.9875 33.416 77.6196 33.3182 77.1953 33.3182C76.728 33.3182 76.3236 33.4342 75.9822 33.6662C75.6442 33.8949 75.384 34.1932 75.2017 34.5611C75.0194 34.929 74.9283 35.3234 74.9283 35.7443V36.4205C74.9283 36.9972 75.0277 37.486 75.2266 37.8871C75.4287 38.2848 75.7088 38.5881 76.0668 38.7969C76.4247 39.0024 76.8407 39.1051 77.3146 39.1051C77.6229 39.1051 77.9013 39.062 78.1499 38.9759C78.4018 38.8864 78.6188 38.7538 78.8011 38.5781C78.9834 38.3991 79.1243 38.1771 79.2237 37.9119L80.3572 38.2301C80.2379 38.6146 80.0374 38.9527 79.7557 39.2443C79.474 39.5327 79.1259 39.758 78.7116 39.9205C78.2973 40.0795 77.8317 40.1591 77.3146 40.1591ZM82.2614 40V32.3636H83.3949V33.5568H83.4943C83.6534 33.1491 83.9103 32.8326 84.2649 32.6072C84.6196 32.3786 85.0455 32.2642 85.5426 32.2642C86.0464 32.2642 86.4657 32.3786 86.8004 32.6072C87.1385 32.8326 87.402 33.1491 87.5909 33.5568H87.6705C87.866 33.1624 88.1593 32.8492 88.5504 32.6172C88.9415 32.3819 89.4105 32.2642 89.9574 32.2642C90.6402 32.2642 91.1986 32.478 91.6328 32.9055C92.067 33.3298 92.2841 33.991 92.2841 34.8892V40H91.1108V34.8892C91.1108 34.3258 90.9567 33.9231 90.6484 33.6811C90.3402 33.4392 89.9773 33.3182 89.5597 33.3182C89.0227 33.3182 88.6068 33.4806 88.3118 33.8054C88.0168 34.1269 87.8693 34.5346 87.8693 35.0284V40H86.6761V34.7699C86.6761 34.3357 86.5353 33.986 86.2536 33.7209C85.9718 33.4524 85.6089 33.3182 85.1648 33.3182C84.8598 33.3182 84.5748 33.3994 84.3097 33.5618C84.0478 33.7242 83.8357 33.9496 83.6733 34.2379C83.5142 34.523 83.4347 34.8527 83.4347 35.2273V40H82.2614ZM103.776 34.0739L102.722 34.3722C102.656 34.1965 102.558 34.0258 102.429 33.8601C102.303 33.6911 102.13 33.5518 101.912 33.4425C101.693 33.3331 101.413 33.2784 101.071 33.2784C100.604 33.2784 100.215 33.3861 99.9031 33.6016C99.5948 33.8137 99.4407 34.0838 99.4407 34.4119C99.4407 34.7036 99.5468 34.9339 99.7589 35.103C99.971 35.272 100.302 35.4129 100.753 35.5256L101.887 35.804C102.569 35.9697 103.078 36.2232 103.413 36.5646C103.748 36.9027 103.915 37.3385 103.915 37.8722C103.915 38.3097 103.789 38.7008 103.537 39.0455C103.289 39.3902 102.941 39.6619 102.493 39.8608C102.046 40.0597 101.525 40.1591 100.932 40.1591C100.153 40.1591 99.5086 39.9901 98.9982 39.652C98.4878 39.3139 98.1647 38.8201 98.0288 38.1705L99.1424 37.892C99.2485 38.303 99.449 38.6113 99.744 38.8168C100.042 39.0223 100.432 39.125 100.912 39.125C101.459 39.125 101.893 39.009 102.215 38.777C102.54 38.5417 102.702 38.2599 102.702 37.9318C102.702 37.6667 102.609 37.4446 102.424 37.2656C102.238 37.0833 101.953 36.9474 101.569 36.858L100.296 36.5597C99.5965 36.3939 99.0827 36.1371 98.7546 35.7891C98.4298 35.4377 98.2674 34.9986 98.2674 34.4716C98.2674 34.0407 98.3884 33.6596 98.6303 33.3281C98.8756 32.9967 99.2087 32.7365 99.6296 32.5476C100.054 32.3587 100.534 32.2642 101.071 32.2642C101.827 32.2642 102.42 32.4299 102.851 32.7614C103.285 33.0928 103.594 33.5303 103.776 34.0739ZM106.437 42.8636C106.238 42.8636 106.061 42.8471 105.905 42.8139C105.749 42.7841 105.642 42.7543 105.582 42.7244L105.88 41.6903C106.165 41.7633 106.417 41.7898 106.636 41.7699C106.855 41.75 107.048 41.6522 107.218 41.4766C107.39 41.3042 107.547 41.0241 107.69 40.6364L107.909 40.0398L105.085 32.3636H106.357L108.465 38.4489H108.545L110.653 32.3636H111.926L108.684 41.1136C108.538 41.508 108.358 41.8345 108.142 42.093C107.927 42.3549 107.677 42.5488 107.392 42.6747C107.11 42.8007 106.792 42.8636 106.437 42.8636ZM114.648 35.4062V40H113.474V32.3636H114.608V33.5568H114.707C114.886 33.169 115.158 32.8575 115.523 32.6222C115.887 32.3835 116.358 32.2642 116.934 32.2642C117.452 32.2642 117.904 32.3703 118.292 32.5824C118.68 32.7912 118.981 33.1094 119.197 33.5369C119.412 33.9612 119.52 34.4981 119.52 35.1477V40H118.346V35.2273C118.346 34.6274 118.191 34.16 117.879 33.8253C117.568 33.4872 117.14 33.3182 116.596 33.3182C116.222 33.3182 115.887 33.3994 115.592 33.5618C115.3 33.7242 115.07 33.9612 114.901 34.2727C114.732 34.5843 114.648 34.9621 114.648 35.4062ZM124.766 40.1591C124.05 40.1591 123.434 39.9901 122.917 39.652C122.4 39.3139 122.002 38.8482 121.723 38.255C121.445 37.6617 121.306 36.9839 121.306 36.2216C121.306 35.446 121.448 34.7616 121.733 34.1683C122.022 33.5717 122.423 33.1061 122.936 32.7713C123.453 32.4332 124.057 32.2642 124.746 32.2642C125.283 32.2642 125.767 32.3636 126.198 32.5625C126.629 32.7614 126.982 33.0398 127.257 33.3977C127.532 33.7557 127.703 34.1733 127.769 34.6506H126.596C126.506 34.3026 126.307 33.9943 125.999 33.7259C125.694 33.4541 125.283 33.3182 124.766 33.3182C124.309 33.3182 123.908 33.4375 123.563 33.6761C123.221 33.9115 122.955 34.2446 122.762 34.6754C122.574 35.103 122.479 35.6051 122.479 36.1818C122.479 36.7718 122.572 37.2855 122.757 37.723C122.946 38.1605 123.212 38.5002 123.553 38.7422C123.898 38.9841 124.302 39.1051 124.766 39.1051C125.071 39.1051 125.348 39.0521 125.596 38.946C125.845 38.84 126.055 38.6875 126.228 38.4886C126.4 38.2898 126.523 38.0511 126.596 37.7727H127.769C127.703 38.2235 127.538 38.6295 127.277 38.9908C127.018 39.3487 126.675 39.6338 126.248 39.8459C125.823 40.0547 125.329 40.1591 124.766 40.1591ZM132.686 40.1591C131.95 40.1591 131.315 39.9967 130.782 39.6719C130.251 39.3438 129.842 38.8864 129.554 38.2997C129.269 37.7098 129.126 37.0237 129.126 36.2415C129.126 35.4593 129.269 34.7699 129.554 34.1733C129.842 33.5734 130.243 33.1061 130.757 32.7713C131.274 32.4332 131.877 32.2642 132.566 32.2642C132.964 32.2642 133.357 32.3305 133.745 32.4631C134.132 32.5956 134.485 32.8111 134.804 33.1094C135.122 33.4044 135.375 33.7955 135.564 34.2827C135.753 34.7699 135.848 35.3698 135.848 36.0824V36.5795H129.961V35.5653H134.654C134.654 35.1345 134.568 34.75 134.396 34.4119C134.227 34.0739 133.985 33.8071 133.67 33.6115C133.359 33.416 132.991 33.3182 132.566 33.3182C132.099 33.3182 131.695 33.4342 131.353 33.6662C131.015 33.8949 130.755 34.1932 130.573 34.5611C130.391 34.929 130.299 35.3234 130.299 35.7443V36.4205C130.299 36.9972 130.399 37.486 130.598 37.8871C130.8 38.2848 131.08 38.5881 131.438 38.7969C131.796 39.0024 132.212 39.1051 132.686 39.1051C132.994 39.1051 133.272 39.062 133.521 38.9759C133.773 38.8864 133.99 38.7538 134.172 38.5781C134.355 38.3991 134.495 38.1771 134.595 37.9119L135.728 38.2301C135.609 38.6146 135.408 38.9527 135.127 39.2443C134.845 39.5327 134.497 39.758 134.083 39.9205C133.668 40.0795 133.203 40.1591 132.686 40.1591ZM140.516 40.1591C139.88 40.1591 139.318 39.9983 138.831 39.6768C138.343 39.352 137.962 38.8946 137.687 38.3047C137.412 37.7114 137.275 37.0104 137.275 36.2017C137.275 35.3996 137.412 34.7036 137.687 34.1136C137.962 33.5237 138.345 33.0679 138.836 32.7464C139.326 32.425 139.893 32.2642 140.536 32.2642C141.033 32.2642 141.426 32.3471 141.714 32.5128C142.006 32.6752 142.228 32.8608 142.38 33.0696C142.536 33.2751 142.657 33.4441 142.743 33.5767H142.843V29.8182H144.016V40H142.882V38.8267H142.743C142.657 38.9659 142.534 39.1416 142.375 39.3537C142.216 39.5625 141.989 39.7498 141.694 39.9155C141.399 40.0779 141.007 40.1591 140.516 40.1591ZM140.675 39.1051C141.146 39.1051 141.543 38.9825 141.868 38.7372C142.193 38.4886 142.44 38.1456 142.609 37.7081C142.778 37.2673 142.863 36.7585 142.863 36.1818C142.863 35.6117 142.78 35.1129 142.614 34.6854C142.448 34.2545 142.203 33.9197 141.878 33.6811C141.553 33.4392 141.152 33.3182 140.675 33.3182C140.178 33.3182 139.764 33.4458 139.432 33.701C139.104 33.9529 138.857 34.2959 138.691 34.7301C138.529 35.161 138.448 35.6449 138.448 36.1818C138.448 36.7254 138.531 37.2192 138.696 37.6634C138.865 38.1042 139.114 38.4555 139.442 38.7173C139.774 38.9759 140.185 39.1051 140.675 39.1051ZM155.674 34.0739L154.62 34.3722C154.554 34.1965 154.456 34.0258 154.327 33.8601C154.201 33.6911 154.029 33.5518 153.81 33.4425C153.591 33.3331 153.311 33.2784 152.97 33.2784C152.502 33.2784 152.113 33.3861 151.801 33.6016C151.493 33.8137 151.339 34.0838 151.339 34.4119C151.339 34.7036 151.445 34.9339 151.657 35.103C151.869 35.272 152.201 35.4129 152.652 35.5256L153.785 35.804C154.468 35.9697 154.977 36.2232 155.311 36.5646C155.646 36.9027 155.814 37.3385 155.814 37.8722C155.814 38.3097 155.688 38.7008 155.436 39.0455C155.187 39.3902 154.839 39.6619 154.392 39.8608C153.944 40.0597 153.424 40.1591 152.831 40.1591C152.052 40.1591 151.407 39.9901 150.897 39.652C150.386 39.3139 150.063 38.8201 149.927 38.1705L151.041 37.892C151.147 38.303 151.347 38.6113 151.642 38.8168C151.941 39.0223 152.33 39.125 152.811 39.125C153.358 39.125 153.792 39.009 154.113 38.777C154.438 38.5417 154.6 38.2599 154.6 37.9318C154.6 37.6667 154.508 37.4446 154.322 37.2656C154.136 37.0833 153.851 36.9474 153.467 36.858L152.194 36.5597C151.495 36.3939 150.981 36.1371 150.653 35.7891C150.328 35.4377 150.166 34.9986 150.166 34.4716C150.166 34.0407 150.287 33.6596 150.529 33.3281C150.774 32.9967 151.107 32.7365 151.528 32.5476C151.952 32.3587 152.433 32.2642 152.97 32.2642C153.725 32.2642 154.319 32.4299 154.75 32.7614C155.184 33.0928 155.492 33.5303 155.674 34.0739ZM162.392 36.8778V32.3636H163.566V40H162.392V38.7074H162.313C162.134 39.0952 161.855 39.425 161.477 39.6967C161.1 39.9652 160.622 40.0994 160.046 40.0994C159.568 40.0994 159.144 39.995 158.773 39.7862C158.402 39.5741 158.11 39.2559 157.898 38.8317C157.686 38.4041 157.58 37.8655 157.58 37.2159V32.3636H158.753V37.1364C158.753 37.6932 158.909 38.1373 159.22 38.4688C159.535 38.8002 159.936 38.9659 160.423 38.9659C160.715 38.9659 161.012 38.8913 161.313 38.7422C161.618 38.593 161.874 38.3643 162.079 38.0561C162.288 37.7479 162.392 37.3551 162.392 36.8778ZM168.817 40.1591C168.101 40.1591 167.484 39.9901 166.967 39.652C166.45 39.3139 166.053 38.8482 165.774 38.255C165.496 37.6617 165.357 36.9839 165.357 36.2216C165.357 35.446 165.499 34.7616 165.784 34.1683C166.072 33.5717 166.473 33.1061 166.987 32.7713C167.504 32.4332 168.107 32.2642 168.797 32.2642C169.334 32.2642 169.818 32.3636 170.249 32.5625C170.679 32.7614 171.032 33.0398 171.308 33.3977C171.583 33.7557 171.753 34.1733 171.82 34.6506H170.646C170.557 34.3026 170.358 33.9943 170.05 33.7259C169.745 33.4541 169.334 33.3182 168.817 33.3182C168.359 33.3182 167.958 33.4375 167.614 33.6761C167.272 33.9115 167.005 34.2446 166.813 34.6754C166.624 35.103 166.53 35.6051 166.53 36.1818C166.53 36.7718 166.623 37.2855 166.808 37.723C166.997 38.1605 167.262 38.5002 167.604 38.7422C167.948 38.9841 168.353 39.1051 168.817 39.1051C169.122 39.1051 169.398 39.0521 169.647 38.946C169.896 38.84 170.106 38.6875 170.278 38.4886C170.451 38.2898 170.573 38.0511 170.646 37.7727H171.82C171.753 38.2235 171.589 38.6295 171.327 38.9908C171.069 39.3487 170.726 39.6338 170.298 39.8459C169.874 40.0547 169.38 40.1591 168.817 40.1591ZM176.637 40.1591C175.921 40.1591 175.305 39.9901 174.788 39.652C174.271 39.3139 173.873 38.8482 173.594 38.255C173.316 37.6617 173.177 36.9839 173.177 36.2216C173.177 35.446 173.319 34.7616 173.604 34.1683C173.893 33.5717 174.294 33.1061 174.808 32.7713C175.325 32.4332 175.928 32.2642 176.617 32.2642C177.154 32.2642 177.638 32.3636 178.069 32.5625C178.5 32.7614 178.853 33.0398 179.128 33.3977C179.403 33.7557 179.574 34.1733 179.64 34.6506H178.467C178.377 34.3026 178.178 33.9943 177.87 33.7259C177.565 33.4541 177.154 33.3182 176.637 33.3182C176.18 33.3182 175.779 33.4375 175.434 33.6761C175.093 33.9115 174.826 34.2446 174.634 34.6754C174.445 35.103 174.35 35.6051 174.35 36.1818C174.35 36.7718 174.443 37.2855 174.629 37.723C174.817 38.1605 175.083 38.5002 175.424 38.7422C175.769 38.9841 176.173 39.1051 176.637 39.1051C176.942 39.1051 177.219 39.0521 177.467 38.946C177.716 38.84 177.926 38.6875 178.099 38.4886C178.271 38.2898 178.394 38.0511 178.467 37.7727H179.64C179.574 38.2235 179.41 38.6295 179.148 38.9908C178.889 39.3487 178.546 39.6338 178.119 39.8459C177.694 40.0547 177.201 40.1591 176.637 40.1591ZM184.557 40.1591C183.821 40.1591 183.186 39.9967 182.653 39.6719C182.122 39.3438 181.713 38.8864 181.425 38.2997C181.14 37.7098 180.997 37.0237 180.997 36.2415C180.997 35.4593 181.14 34.7699 181.425 34.1733C181.713 33.5734 182.114 33.1061 182.628 32.7713C183.145 32.4332 183.748 32.2642 184.438 32.2642C184.835 32.2642 185.228 32.3305 185.616 32.4631C186.004 32.5956 186.357 32.8111 186.675 33.1094C186.993 33.4044 187.246 33.7955 187.435 34.2827C187.624 34.7699 187.719 35.3698 187.719 36.0824V36.5795H181.832V35.5653H186.526C186.526 35.1345 186.439 34.75 186.267 34.4119C186.098 34.0739 185.856 33.8071 185.541 33.6115C185.23 33.416 184.862 33.3182 184.438 33.3182C183.97 33.3182 183.566 33.4342 183.224 33.6662C182.886 33.8949 182.626 34.1932 182.444 34.5611C182.262 34.929 182.17 35.3234 182.17 35.7443V36.4205C182.17 36.9972 182.27 37.486 182.469 37.8871C182.671 38.2848 182.951 38.5881 183.309 38.7969C183.667 39.0024 184.083 39.1051 184.557 39.1051C184.865 39.1051 185.143 39.062 185.392 38.9759C185.644 38.8864 185.861 38.7538 186.043 38.5781C186.226 38.3991 186.366 38.1771 186.466 37.9119L187.599 38.2301C187.48 38.6146 187.28 38.9527 186.998 39.2443C186.716 39.5327 186.368 39.758 185.954 39.9205C185.54 40.0795 185.074 40.1591 184.557 40.1591ZM194.913 34.0739L193.859 34.3722C193.792 34.1965 193.695 34.0258 193.565 33.8601C193.439 33.6911 193.267 33.5518 193.048 33.4425C192.83 33.3331 192.549 33.2784 192.208 33.2784C191.741 33.2784 191.351 33.3861 191.04 33.6016C190.732 33.8137 190.577 34.0838 190.577 34.4119C190.577 34.7036 190.683 34.9339 190.896 35.103C191.108 35.272 191.439 35.4129 191.89 35.5256L193.023 35.804C193.706 35.9697 194.215 36.2232 194.55 36.5646C194.884 36.9027 195.052 37.3385 195.052 37.8722C195.052 38.3097 194.926 38.7008 194.674 39.0455C194.425 39.3902 194.077 39.6619 193.63 39.8608C193.183 40.0597 192.662 40.1591 192.069 40.1591C191.29 40.1591 190.645 39.9901 190.135 39.652C189.625 39.3139 189.301 38.8201 189.165 38.1705L190.279 37.892C190.385 38.303 190.586 38.6113 190.881 38.8168C191.179 39.0223 191.568 39.125 192.049 39.125C192.596 39.125 193.03 39.009 193.352 38.777C193.676 38.5417 193.839 38.2599 193.839 37.9318C193.839 37.6667 193.746 37.4446 193.56 37.2656C193.375 37.0833 193.09 36.9474 192.705 36.858L191.433 36.5597C190.733 36.3939 190.219 36.1371 189.891 35.7891C189.567 35.4377 189.404 34.9986 189.404 34.4716C189.404 34.0407 189.525 33.6596 189.767 33.3281C190.012 32.9967 190.345 32.7365 190.766 32.5476C191.191 32.3587 191.671 32.2642 192.208 32.2642C192.964 32.2642 193.557 32.4299 193.988 32.7614C194.422 33.0928 194.73 33.5303 194.913 34.0739ZM202.227 34.0739L201.173 34.3722C201.107 34.1965 201.009 34.0258 200.88 33.8601C200.754 33.6911 200.581 33.5518 200.363 33.4425C200.144 33.3331 199.864 33.2784 199.523 33.2784C199.055 33.2784 198.666 33.3861 198.354 33.6016C198.046 33.8137 197.892 34.0838 197.892 34.4119C197.892 34.7036 197.998 34.9339 198.21 35.103C198.422 35.272 198.754 35.4129 199.204 35.5256L200.338 35.804C201.021 35.9697 201.529 36.2232 201.864 36.5646C202.199 36.9027 202.366 37.3385 202.366 37.8722C202.366 38.3097 202.24 38.7008 201.988 39.0455C201.74 39.3902 201.392 39.6619 200.944 39.8608C200.497 40.0597 199.977 40.1591 199.383 40.1591C198.604 40.1591 197.96 39.9901 197.449 39.652C196.939 39.3139 196.616 38.8201 196.48 38.1705L197.594 37.892C197.7 38.303 197.9 38.6113 198.195 38.8168C198.493 39.0223 198.883 39.125 199.363 39.125C199.91 39.125 200.345 39.009 200.666 38.777C200.991 38.5417 201.153 38.2599 201.153 37.9318C201.153 37.6667 201.06 37.4446 200.875 37.2656C200.689 37.0833 200.404 36.9474 200.02 36.858L198.747 36.5597C198.048 36.3939 197.534 36.1371 197.206 35.7891C196.881 35.4377 196.719 34.9986 196.719 34.4716C196.719 34.0407 196.84 33.6596 197.081 33.3281C197.327 32.9967 197.66 32.7365 198.081 32.5476C198.505 32.3587 198.986 32.2642 199.523 32.2642C200.278 32.2642 200.872 32.4299 201.302 32.7614C201.737 33.0928 202.045 33.5303 202.227 34.0739ZM207.533 32.3636V33.358H203.417V32.3636H207.533ZM204.65 40V31.3097C204.65 30.8722 204.752 30.5076 204.958 30.2159C205.163 29.9242 205.43 29.7055 205.758 29.5597C206.086 29.4138 206.433 29.3409 206.797 29.3409C207.086 29.3409 207.321 29.3641 207.503 29.4105C207.685 29.4569 207.821 29.5 207.911 29.5398L207.573 30.554C207.513 30.5341 207.43 30.5092 207.324 30.4794C207.221 30.4496 207.086 30.4347 206.917 30.4347C206.529 30.4347 206.249 30.5324 206.076 30.728C205.907 30.9235 205.823 31.2102 205.823 31.5881V40H204.65ZM213.99 36.8778V32.3636H215.163V40H213.99V38.7074H213.91C213.731 39.0952 213.453 39.425 213.075 39.6967C212.697 39.9652 212.22 40.0994 211.643 40.0994C211.166 40.0994 210.742 39.995 210.371 39.7862C209.999 39.5741 209.708 39.2559 209.496 38.8317C209.283 38.4041 209.177 37.8655 209.177 37.2159V32.3636H210.351V37.1364C210.351 37.6932 210.506 38.1373 210.818 38.4688C211.133 38.8002 211.534 38.9659 212.021 38.9659C212.313 38.9659 212.609 38.8913 212.911 38.7422C213.216 38.593 213.471 38.3643 213.677 38.0561C213.885 37.7479 213.99 37.3551 213.99 36.8778ZM218.485 29.8182V40H217.312V29.8182H218.485ZM221.808 29.8182V40H220.634V29.8182H221.808ZM224.712 42.8636C224.513 42.8636 224.336 42.8471 224.18 42.8139C224.025 42.7841 223.917 42.7543 223.857 42.7244L224.156 41.6903C224.441 41.7633 224.692 41.7898 224.911 41.7699C225.13 41.75 225.324 41.6522 225.493 41.4766C225.665 41.3042 225.823 41.0241 225.965 40.6364L226.184 40.0398L223.36 32.3636H224.633L226.741 38.4489H226.82L228.928 32.3636H230.201L226.96 41.1136C226.814 41.508 226.633 41.8345 226.418 42.093C226.202 42.3549 225.952 42.5488 225.667 42.6747C225.385 42.8007 225.067 42.8636 224.712 42.8636Z" fill="#F5F5F7"/>
</g>
<rect x="24" y="21" width="4" height="28" rx="2" fill="#34C759"/>
<path d="M332.074 40.412L331.426 39.764L335.362 35.804L331.426 31.844L332.074 31.196L336.01 35.156L339.922 31.196L340.57 31.844L336.634 35.804L340.57 39.764L339.922 40.412L336.01 36.476L332.074 40.412Z" fill="#6A6A6C"/>
</g>
<defs>
<filter id="filter0_ddd_2317_10436" x="0" y="0" width="376" height="76" filterUnits="userSpaceOnUse" color-interpolation-filters="sRGB">
<feFlood flood-opacity="0" result="BackgroundImageFix"/>
<feColorMatrix in="SourceAlpha" type="matrix" values="0 0 0 0 0 0 0 0 0 0 0 0 0 0 0 0 0 0 127 0" result="hardAlpha"/>
<feMorphology radius="3" operator="erode" in="SourceAlpha" result="effect1_dropShadow_2317_10436"/>
<feOffset dy="5"/>
<feGaussianBlur stdDeviation="2.5"/>
<feColorMatrix type="matrix" values="0 0 0 0 0 0 0 0 0 0 0 0 0 0 0 0 0 0 0.06 0"/>
<feBlend mode="normal" in2="BackgroundImageFix" result="effect1_dropShadow_2317_10436"/>
<feColorMatrix in="SourceAlpha" type="matrix" values="0 0 0 0 0 0 0 0 0 0 0 0 0 0 0 0 0 0 127 0" result="hardAlpha"/>
<feMorphology radius="2" operator="dilate" in="SourceAlpha" result="effect2_dropShadow_2317_10436"/>
<feOffset dy="3"/>
<feGaussianBlur stdDeviation="7"/>
<feColorMatrix type="matrix" values="0 0 0 0 0 0 0 0 0 0 0 0 0 0 0 0 0 0 0.07 0"/>
<feBlend mode="normal" in2="effect1_dropShadow_2317_10436" result="effect2_dropShadow_2317_10436"/>
<feColorMatrix in="SourceAlpha" type="matrix" values="0 0 0 0 0 0 0 0 0 0 0 0 0 0 0 0 0 0 127 0" result="hardAlpha"/>
<feMorphology radius="1" operator="dilate" in="SourceAlpha" result="effect3_dropShadow_2317_10436"/>
<feOffset dy="8"/>
<feGaussianBlur stdDeviation="5"/>
<feColorMatrix type="matrix" values="0 0 0 0 0 0 0 0 0 0 0 0 0 0 0 0 0 0 0.03 0"/>
<feBlend mode="normal" in2="effect2_dropShadow_2317_10436" result="effect3_dropShadow_2317_10436"/>
<feBlend mode="normal" in="SourceGraphic" in2="effect3_dropShadow_2317_10436" result="shape"/>
</filter>
<clipPath id="clip0_2317_10436">
<rect width="264" height="20" fill="white" transform="translate(44 25)"/>
</clipPath>
</defs>
</svg>
